<?xml version="1.0" encoding="UTF-8"?>
<svg xmlns="http://www.w3.org/2000/svg" xmlns:xlink="http://www.w3.org/1999/xlink" version="1.1" id="Ebene_1" x="0px" y="0px" viewBox="0 0 283.5 226.8" style="enable-background:new 0 0 283.5 226.8;" xml:space="preserve">
<style type="text/css">
	.st0{clip-path:url(#SVGID_00000110448645067741148930000014624842922016731279_);fill:#FFFFFF;}
	.st1{fill:#FFFFFF;}
	.st2{clip-path:url(#SVGID_00000058572868441480734980000013684226878323569595_);fill:#FFFFFF;}
</style>
<g>
	<defs>
		<rect id="SVGID_1_" width="283.5" height="226.8"></rect>
	</defs>
	<clipPath id="SVGID_00000014601269715526750120000000365954360848620727_">
		<use xlink:href="#SVGID_1_" style="overflow:visible;"></use>
	</clipPath>
	<path style="clip-path:url(#SVGID_00000014601269715526750120000000365954360848620727_);fill:#FFFFFF;" d="M272.6,8.4   c-10.7-2.1-61.3-10.1-144.9,1.7C72.2,17.9,27.2,32,10.4,37.8v10c13.2-4.6,60-20.1,118.6-28.3c90.6-12.8,142.8-1.6,143.6-1.4V8.4z"></path>
	<path style="clip-path:url(#SVGID_00000014601269715526750120000000365954360848620727_);fill:#FFFFFF;" d="M42.7,151.2   c-18,0-31.6-14.7-31.6-34.2V75.6h9.5V117c0,14.1,9.5,24.7,22.1,24.7s22.1-10.6,22.1-24.7V75.6h9.5V117   C74.3,136.5,60.7,151.2,42.7,151.2"></path>
	<path style="clip-path:url(#SVGID_00000014601269715526750120000000365954360848620727_);fill:#FFFFFF;" d="M234.1,82.9   c-16,0-29,13.3-29,29.6c0,16.3,13,29.6,29,29.6s29-13.3,29-29.6C263.1,96.2,250.1,82.9,234.1,82.9 M234.1,151.6   c-21.2,0-38.5-17.5-38.5-39.1s17.3-39.1,38.5-39.1s38.5,17.5,38.5,39.1S255.3,151.6,234.1,151.6"></path>
</g>
<polygon class="st1" points="177.8,149.4 177.8,75.1 165.6,75.1 137.6,128.2 109.6,75.1 97.4,75.1 97.4,149.4 106.9,149.4   106.9,90.3 132.4,138.6 142.8,138.6 168.3,90.3 168.3,149.4 "></polygon>
<g>
	<defs>
		<rect id="SVGID_00000001637845948821410820000008278747050582098613_" width="283.5" height="226.8"></rect>
	</defs>
	<clipPath id="SVGID_00000108308880496353678850000016740948697617148293_">
		<use xlink:href="#SVGID_00000001637845948821410820000008278747050582098613_" style="overflow:visible;"></use>
	</clipPath>
	<path style="clip-path:url(#SVGID_00000108308880496353678850000016740948697617148293_);fill:#FFFFFF;" d="M133.5,218   c-1.3,0-2.2-0.4-3-1.2c-0.7-0.8-1.1-2-1.1-3.4c0-1.4,0.4-2.6,1.1-3.4c0.7-0.8,1.7-1.2,3-1.2s2.2,0.4,2.9,1.2c0.7,0.8,1,1.9,1,3.4   c0,1.4-0.4,2.6-1.1,3.4C135.7,217.6,134.7,218,133.5,218 M137.5,207.2v2.2c-0.4-0.8-1-1.4-1.7-1.9c-0.8-0.4-1.7-0.7-2.7-0.7   c-1.1,0-2.1,0.3-3,0.8c-0.9,0.5-1.6,1.3-2,2.3c-0.5,1-0.7,2.1-0.7,3.4c0,1.3,0.2,2.4,0.7,3.4c0.5,1,1.2,1.7,2,2.3   c0.9,0.5,1.9,0.8,3,0.8c1,0,1.9-0.2,2.7-0.7c0.8-0.4,1.3-1.1,1.7-1.9v2.3c0,1.3-0.3,2.2-1,2.9c-0.6,0.7-1.6,1-2.8,1   c-0.9,0-1.8-0.1-2.5-0.4c-0.8-0.2-1.6-0.7-2.4-1.2l-0.7,1.6c1.5,1.2,3.4,1.8,5.7,1.8c1.9,0,3.4-0.5,4.4-1.5c1-1,1.5-2.4,1.5-4.4   v-12H137.5z M125.3,206.9l-0.8,0.1c-2.1,0.2-3.5,1-4.3,2.5v-2.3h-2.1v12.9h2.1v-7.4c0-1,0.3-1.9,0.9-2.6c0.6-0.7,1.6-1.1,2.9-1.2   l1.4-0.1L125.3,206.9z M111.2,207.2v7.3c0,1.2-0.3,2.2-1,2.9c-0.7,0.7-1.6,1.1-2.7,1.1c-1,0-1.7-0.3-2.2-0.8   c-0.5-0.5-0.7-1.4-0.7-2.5v-8h-2.1v8c0,1.7,0.4,2.9,1.2,3.8c0.8,0.9,1.9,1.3,3.5,1.3c0.9,0,1.7-0.2,2.5-0.6c0.7-0.4,1.3-1,1.7-1.8   v2.2h2.1v-12.9H111.2z M92.5,218.6c-1.3,0-2.2-0.4-2.9-1.3c-0.7-0.9-1-2.1-1-3.6s0.3-2.8,1-3.6c0.7-0.8,1.6-1.3,2.9-1.3   c1.3,0,2.2,0.4,2.9,1.3c0.7,0.8,1,2,1,3.6c0,1.6-0.3,2.8-1,3.7C94.7,218.1,93.7,218.6,92.5,218.6 M92.9,206.9c-1,0-1.9,0.2-2.6,0.7   c-0.8,0.4-1.3,1.1-1.7,1.9v-8h-2.1v18.7h2.1v-2.4c0.4,0.8,1,1.4,1.7,1.9c0.8,0.4,1.6,0.7,2.6,0.7c1.1,0,2.1-0.3,3-0.8   c0.9-0.6,1.5-1.4,2-2.4c0.5-1,0.7-2.2,0.7-3.5c0-1.3-0.2-2.5-0.7-3.5c-0.5-1-1.2-1.8-2-2.3C95,207.2,94,206.9,92.9,206.9    M76.9,206.9c-1,0-1.8,0.2-2.6,0.6c-0.8,0.4-1.4,1-1.8,1.8v-2.1h-2.1v12.9h2.1v-7.4c0-1.2,0.4-2.2,1.1-2.9c0.7-0.7,1.7-1.1,2.8-1.1   c1,0,1.8,0.3,2.2,0.8c0.5,0.5,0.7,1.4,0.7,2.6v8h2.1V212C81.5,208.6,80,206.9,76.9,206.9 M60.7,208.6c1.1,0,2,0.3,2.6,1   c0.6,0.7,0.9,1.7,1,3h-7.5c0.1-1.3,0.5-2.3,1.2-3C58.7,208.9,59.6,208.6,60.7,208.6 M66.2,213.2c0-2-0.5-3.5-1.5-4.6   c-1-1.1-2.3-1.7-4-1.7c-1.2,0-2.2,0.3-3.2,0.8c-0.9,0.6-1.6,1.4-2.2,2.4c-0.5,1-0.8,2.2-0.8,3.5c0,2.1,0.6,3.7,1.7,4.9   c1.2,1.2,2.7,1.8,4.8,1.8c0.9,0,1.8-0.2,2.7-0.5c0.9-0.3,1.6-0.7,2.2-1.3l-0.7-1.6c-1.3,1-2.6,1.5-4.1,1.5c-1.4,0-2.4-0.4-3.2-1.2   c-0.7-0.8-1.1-1.9-1.2-3.4h9.4V213.2z M44.5,218.6c-1.3,0-2.2-0.4-2.9-1.3c-0.7-0.9-1-2.1-1-3.7c0-1.5,0.3-2.7,1-3.6   c0.7-0.8,1.7-1.3,2.9-1.3c1.3,0,2.2,0.4,2.9,1.3c0.7,0.8,1,2.1,1,3.6s-0.3,2.8-1,3.6C46.7,218.1,45.8,218.6,44.5,218.6 M48.4,201.5   v8c-0.4-0.8-1-1.4-1.7-1.9c-0.8-0.4-1.6-0.7-2.6-0.7c-1.1,0-2.1,0.3-3,0.8c-0.9,0.5-1.5,1.3-2,2.3c-0.5,1-0.7,2.2-0.7,3.5   c0,1.3,0.2,2.5,0.7,3.5c0.5,1,1.1,1.8,2,2.4c0.9,0.6,1.9,0.8,3,0.8c1,0,1.9-0.2,2.6-0.7c0.8-0.4,1.3-1.1,1.7-1.9v2.4h2.1v-18.7   H48.4z M31.9,220.1h2.1v-18.7h-2.1V220.1z M19.3,218.5c-2,0-3.5-0.7-4.6-2c-1.1-1.3-1.7-3.2-1.7-5.7c0-2.5,0.6-4.4,1.7-5.7   c1.1-1.3,2.6-2,4.6-2c2,0,3.5,0.7,4.6,2c1.1,1.3,1.6,3.2,1.6,5.7c0,2.5-0.6,4.4-1.7,5.7C22.8,217.8,21.3,218.5,19.3,218.5    M19.3,220.4c1.7,0,3.2-0.4,4.5-1.2c1.3-0.8,2.3-1.9,3-3.3c0.7-1.4,1-3.1,1-5.1c0-1.9-0.3-3.6-1-5.1c-0.7-1.4-1.7-2.5-2.9-3.3   c-1.3-0.8-2.8-1.2-4.5-1.2s-3.3,0.4-4.5,1.2s-2.3,1.9-2.9,3.3c-0.7,1.4-1,3.1-1,5.1c0,1.9,0.3,3.6,1,5.1c0.7,1.4,1.7,2.5,3,3.3   C16,220,17.5,220.4,19.3,220.4"></path>
	<path style="clip-path:url(#SVGID_00000108308880496353678850000016740948697617148293_);fill:#FFFFFF;" d="M254,176.4   c-1,0-1.8,0.2-2.6,0.6c-0.8,0.4-1.4,1-1.8,1.8v-2.1h-2.1v12.9h2.1v-7.4c0-1.2,0.4-2.2,1.1-2.9c0.7-0.7,1.7-1.1,2.8-1.1   c1,0,1.8,0.3,2.2,0.8c0.5,0.5,0.7,1.4,0.7,2.6v8h2.1v-8.1C258.6,178.1,257.1,176.4,254,176.4 M240,173.5h2.6v-2.4H240V173.5z    M240.3,189.6h2.1v-12.9h-2.1V189.6z M227.8,187.9l8-9.7v-1.6h-10.4v1.7h7.8l-8.1,9.7v1.5h11v-1.7H227.8z M218.4,173.5h2.6v-2.4   h-2.6V173.5z M218.6,189.6h2.1v-12.9h-2.1V189.6z M207.5,188c-1.3,0-2.2-0.4-2.9-1.3s-1-2.1-1-3.7c0-1.5,0.3-2.7,1-3.6   s1.7-1.3,2.9-1.3c1.3,0,2.2,0.4,2.9,1.3c0.7,0.8,1,2.1,1,3.6c0,1.6-0.3,2.8-1,3.6C209.8,187.6,208.8,188,207.5,188 M211.5,170.9v8   c-0.4-0.8-1-1.4-1.7-1.9c-0.8-0.4-1.6-0.7-2.6-0.7c-1.1,0-2.1,0.3-3,0.8c-0.9,0.5-1.5,1.3-2,2.3c-0.5,1-0.7,2.2-0.7,3.5   c0,1.3,0.2,2.5,0.7,3.5c0.5,1,1.1,1.8,2,2.4c0.9,0.6,1.9,0.8,3,0.8c1,0,1.9-0.2,2.6-0.7c0.8-0.4,1.3-1.1,1.7-1.9v2.4h2.1v-18.7   H211.5z M192.5,178.1c1.1,0,2,0.3,2.6,1c0.6,0.7,0.9,1.7,1,3h-7.5c0.1-1.3,0.5-2.3,1.2-3C190.4,178.4,191.3,178.1,192.5,178.1    M197.9,182.7c0-2-0.5-3.5-1.5-4.6s-2.3-1.7-4-1.7c-1.2,0-2.2,0.3-3.2,0.8c-0.9,0.6-1.6,1.4-2.2,2.4c-0.5,1-0.8,2.2-0.8,3.5   c0,2.1,0.6,3.7,1.7,4.9c1.2,1.2,2.7,1.8,4.8,1.8c0.9,0,1.8-0.2,2.7-0.5c0.9-0.3,1.6-0.7,2.2-1.3l-0.7-1.6c-1.3,1-2.6,1.5-4.1,1.5   c-1.4,0-2.4-0.4-3.2-1.2c-0.7-0.8-1.1-1.9-1.2-3.4h9.4V182.7z M178.1,176.4c-1,0-1.8,0.2-2.6,0.7c-0.8,0.5-1.3,1.1-1.7,1.9   c-0.6-1.7-2-2.5-4-2.5c-0.9,0-1.7,0.2-2.4,0.6c-0.7,0.4-1.2,1-1.6,1.8v-2h-2.1v12.9h2.1v-7.4c0-1.3,0.3-2.2,0.9-3   c0.6-0.7,1.5-1.1,2.5-1.1c0.9,0,1.6,0.3,2,0.8c0.4,0.5,0.6,1.4,0.6,2.6v8h2.1v-7.4c0-1.3,0.3-2.2,0.9-3c0.6-0.7,1.5-1.1,2.5-1.1   c0.9,0,1.6,0.3,2,0.8c0.4,0.5,0.6,1.4,0.6,2.6v8h2.1v-8.1C182.4,178.1,181,176.4,178.1,176.4 M154.3,189.8c1.6,0,2.8-0.3,3.7-1   c0.9-0.7,1.4-1.6,1.4-2.7c0-0.9-0.3-1.7-0.9-2.2c-0.6-0.6-1.5-1-2.7-1.3l-2.2-0.5c-0.7-0.2-1.2-0.4-1.5-0.7   c-0.3-0.3-0.5-0.7-0.5-1.2c0-0.6,0.3-1.1,0.8-1.4c0.5-0.3,1.2-0.5,2.1-0.5c1.4,0,2.7,0.5,3.9,1.5l0.7-1.6c-0.5-0.5-1.2-1-2-1.3   c-0.8-0.3-1.7-0.4-2.6-0.4c-1.5,0-2.7,0.4-3.6,1.1c-0.9,0.7-1.4,1.6-1.4,2.8c0,0.9,0.3,1.6,0.9,2.2c0.6,0.6,1.4,1,2.5,1.3l2.2,0.5   c0.8,0.2,1.3,0.4,1.7,0.7c0.3,0.3,0.5,0.7,0.5,1.2c0,0.6-0.3,1.1-0.8,1.4c-0.5,0.3-1.2,0.5-2.2,0.5c-0.9,0-1.7-0.1-2.4-0.4   c-0.7-0.2-1.4-0.6-2.1-1.2l-0.7,1.6C150.4,189.3,152.1,189.8,154.3,189.8 M145.5,188.1c-1.9,0-2.8-1-2.8-3v-6.6h3.7v-1.7h-3.7v-3.9   h-2.1v3.9h-2.5v1.7h2.5v6.8c0,1.4,0.4,2.6,1.2,3.4c0.8,0.8,2,1.2,3.5,1.2c0.5,0,0.9,0,1.3-0.1l0.1-1.7   C146.3,188.1,145.9,188.1,145.5,188.1 M131.1,173.5h2.4v-2.3h-2.4V173.5z M126.6,173.5h2.4v-2.3h-2.4V173.5z M129.2,188.1   c-0.8,0-1.4-0.2-1.9-0.7c-0.5-0.5-0.8-1-0.8-1.7c0-0.6,0.2-1.1,0.5-1.4c0.3-0.3,0.9-0.5,1.7-0.7c0.8-0.1,2-0.2,3.6-0.2h0.5v0.8   c0,1.1-0.3,2.1-1,2.8C131.1,187.8,130.2,188.1,129.2,188.1 M130,176.4c-0.9,0-1.8,0.1-2.7,0.4c-0.9,0.3-1.8,0.7-2.4,1.2l0.7,1.6   c1.5-0.9,2.9-1.4,4.4-1.4c1,0,1.7,0.2,2.1,0.7c0.4,0.5,0.7,1.3,0.7,2.3v0.9h-0.6c-2,0-3.6,0.1-4.7,0.4c-1.1,0.2-1.9,0.6-2.4,1.2   c-0.5,0.5-0.7,1.3-0.7,2.3c0,0.7,0.2,1.4,0.6,2c0.4,0.6,1,1.1,1.7,1.4c0.7,0.3,1.5,0.5,2.3,0.5c0.9,0,1.7-0.2,2.4-0.6   c0.7-0.4,1.2-1,1.5-1.8v2.2h2.1v-8.1c0-1.7-0.4-3-1.2-3.8C132.9,176.8,131.6,176.4,130,176.4 M120.4,188.1c-1.9,0-2.8-1-2.8-3v-6.6   h3.7v-1.7h-3.7v-3.9h-2.1v3.9h-2.5v1.7h2.5v6.8c0,1.4,0.4,2.6,1.2,3.4c0.8,0.8,2,1.2,3.5,1.2c0.5,0,0.9,0,1.3-0.1l0.1-1.7   C121.1,188.1,120.7,188.1,120.4,188.1 M107.3,173.5h2.6v-2.4h-2.6V173.5z M107.5,189.6h2.1v-12.9h-2.1V189.6z M98.1,189.8   c1.6,0,2.8-0.3,3.7-1c0.9-0.7,1.4-1.6,1.4-2.7c0-0.9-0.3-1.7-0.9-2.2c-0.6-0.6-1.5-1-2.7-1.3l-2.2-0.5c-0.7-0.2-1.2-0.4-1.5-0.7   c-0.3-0.3-0.5-0.7-0.5-1.2c0-0.6,0.3-1.1,0.8-1.4c0.5-0.3,1.2-0.5,2.1-0.5c1.4,0,2.7,0.5,3.9,1.5l0.7-1.6c-0.5-0.5-1.2-1-2-1.3   c-0.8-0.3-1.7-0.4-2.6-0.4c-1.5,0-2.7,0.4-3.6,1.1c-0.9,0.7-1.4,1.6-1.4,2.8c0,0.9,0.3,1.6,0.9,2.2c0.6,0.6,1.4,1,2.5,1.3l2.2,0.5   c0.8,0.2,1.3,0.4,1.7,0.7c0.3,0.3,0.5,0.7,0.5,1.2c0,0.6-0.3,1.1-0.8,1.4c-0.5,0.3-1.2,0.5-2.2,0.5c-0.9,0-1.7-0.1-2.4-0.4   c-0.7-0.2-1.4-0.6-2.1-1.2l-0.7,1.6C94.2,189.3,95.9,189.8,98.1,189.8 M90.8,176.4l-0.8,0.1c-2.1,0.2-3.5,1-4.3,2.5v-2.3h-2.1v12.9   h2.1v-7.4c0-1,0.3-1.9,0.9-2.6c0.6-0.7,1.6-1.1,2.9-1.2l1.4-0.1L90.8,176.4z M74,178.1c1.1,0,2,0.3,2.6,1c0.6,0.7,0.9,1.7,1,3h-7.5   c0.1-1.3,0.5-2.3,1.2-3C71.9,178.4,72.8,178.1,74,178.1 M79.4,182.7c0-2-0.5-3.5-1.5-4.6c-1-1.1-2.3-1.7-4-1.7   c-1.2,0-2.2,0.3-3.2,0.8c-0.9,0.6-1.6,1.4-2.2,2.4c-0.5,1-0.8,2.2-0.8,3.5c0,2.1,0.6,3.7,1.7,4.9s2.7,1.8,4.8,1.8   c0.9,0,1.8-0.2,2.7-0.5c0.9-0.3,1.6-0.7,2.2-1.3l-0.7-1.6c-1.3,1-2.6,1.5-4.1,1.5c-1.4,0-2.4-0.4-3.2-1.2c-0.7-0.8-1.2-1.9-1.2-3.4   h9.4V182.7z M63.6,176.7l-4.4,10.6l-4.3-10.6h-2.3l5.5,12.9h2l5.6-12.9H63.6z M46.9,173.5h2.6v-2.4h-2.6V173.5z M47.1,189.6h2.1   v-12.9h-2.1V189.6z M37.5,176.4c-1,0-1.8,0.2-2.6,0.6c-0.8,0.4-1.4,1-1.8,1.8v-2.1H31v12.9h2.1v-7.4c0-1.2,0.4-2.2,1.1-2.9   c0.7-0.7,1.7-1.1,2.8-1.1c1,0,1.8,0.3,2.2,0.8c0.5,0.5,0.7,1.4,0.7,2.6v8h2.1v-8.1C42.1,178.1,40.6,176.4,37.5,176.4 M18.7,189.8   c2.4,0,4.3-0.6,5.5-1.9c1.3-1.3,1.9-3.2,1.9-5.6v-11.4H24v11.6c0,1.8-0.4,3.2-1.3,4.1c-0.9,0.9-2.2,1.4-3.9,1.4   c-1.7,0-3-0.5-3.9-1.4c-0.9-0.9-1.3-2.3-1.3-4.1v-11.6h-2.1v11.4c0,2.5,0.6,4.3,1.9,5.6C14.5,189.2,16.3,189.8,18.7,189.8"></path>
</g>
</svg>
